<?xml version="1.0" encoding="UTF-8"?>
<svg version="1.1" xmlns="http://www.w3.org/2000/svg" width="150" height="120">
<path d="M0 0 C49.5 0 99 0 150 0 C150 39.6 150 79.2 150 120 C100.5 120 51 120 0 120 C0 80.4 0 40.8 0 0 Z " fill="#EBFCFD" transform="translate(0,0)"/>
<path d="M0 0 C0.33 0.66 0.66 1.32 1 2 C0.20335938 2.49306641 0.20335938 2.49306641 -0.609375 2.99609375 C-6.23223334 6.78228851 -9.23009347 10.40205731 -11 17 C-11.71132252 22.00661621 -10.92493675 26.33962681 -9 31 C-8.608125 32.010625 -8.21625 33.02125 -7.8125 34.0625 C-4.9737264 38.663271 -1.09887465 41.30037512 4 43 C10.95066551 43.40389002 17.43434692 43.4430337 24 41 C20.43553251 44.91543044 16.18522241 46.53792712 10.98046875 47.29296875 C3.92359919 47.58526512 -1.70864997 45.27915364 -7.25 41 C-12.67029377 35.95315166 -15.08144995 29.08463108 -15.4375 21.75 C-14.49210543 13.64661793 -10.74542173 8.58198523 -5 3 C-2.0625 1 -2.0625 1 0 0 Z " fill="#519AB4" transform="translate(67,22)"/>
<path d="M0 0 C1.22589844 0.15275391 1.22589844 0.15275391 2.4765625 0.30859375 C3.41628906 0.43427734 3.41628906 0.43427734 4.375 0.5625 C5.035 2.5425 5.695 4.5225 6.375 6.5625 C6.705 4.5825 7.035 2.6025 7.375 0.5625 C8.035 0.5625 8.695 0.5625 9.375 0.5625 C10.035 2.2125 10.695 3.8625 11.375 5.5625 C12.035 3.9125 12.695 2.2625 13.375 0.5625 C13.705 1.8825 14.035 3.2025 14.375 4.5625 C15.035 3.2425 15.695 1.9225 16.375 0.5625 C17.035 0.5625 17.695 0.5625 18.375 0.5625 C19.365 4.1925 20.355 7.8225 21.375 11.5625 C20.715 11.5625 20.055 11.5625 19.375 11.5625 C18.9109375 10.3559375 18.9109375 10.3559375 18.4375 9.125 C17.61164655 6.67169595 17.61164655 6.67169595 16.375 5.5625 C15.715 7.5425 15.055 9.5225 14.375 11.5625 C12.70833333 11.5625 11.04166667 11.5625 9.375 11.5625 C9.045 10.2425 8.715 8.9225 8.375 7.5625 C8.045 8.8825 7.715 10.2025 7.375 11.5625 C4.375 10.5625 4.375 10.5625 3.375 9.5625 C3.045 10.2225 2.715 10.8825 2.375 11.5625 C1.385 11.5625 0.395 11.5625 -0.625 11.5625 C-2.605 8.0975 -2.605 8.0975 -4.625 4.5625 C-4.955 6.8725 -5.285 9.1825 -5.625 11.5625 C-5.955 11.5625 -6.285 11.5625 -6.625 11.5625 C-6.625 7.9325 -6.625 4.3025 -6.625 0.5625 C-4.10446405 -0.69776798 -2.7707902 -0.35624445 0 0 Z " fill="#869AB5" transform="translate(57.625,75.4375)"/>
<path d="M0 0 C6.42527261 -0.48492623 6.42527261 -0.48492623 9 1.6875 C10.28737047 4.6645442 10.15986213 5.98435845 9 9 C6.9375 10.6875 6.9375 10.6875 5 12 C5 12.66 5 13.32 5 14 C5.99 14.33 6.98 14.66 8 15 C7.6875 16.9375 7.6875 16.9375 7 19 C6.01 19.33 5.02 19.66 4 20 C3.87625 19.360625 3.7525 18.72125 3.625 18.0625 C3.41875 17.381875 3.2125 16.70125 3 16 C2.34 15.67 1.68 15.34 1 15 C0.67 16.65 0.34 18.3 0 20 C-1.32 20 -2.64 20 -4 20 C-3.67 18.35 -3.34 16.7 -3 15 C-2.34 15 -1.68 15 -1 15 C-1.33 11.37 -1.66 7.74 -2 4 C-1.34 4 -0.68 4 0 4 C0 2.68 0 1.36 0 0 Z " fill="#A8BBC7" transform="translate(79,76)"/>
<path d="M0 0 C1.32 0 2.64 0 4 0 C7 4.07142857 7 4.07142857 7 7 C8.32 7.66 9.64 8.32 11 9 C11.33 6.03 11.66 3.06 12 0 C12.66 0 13.32 0 14 0 C14.33 5.94 14.66 11.88 15 18 C13.68 18 12.36 18 11 18 C9.37227202 15.83761684 8.06336197 13.83973003 6.75 11.5 C6.20472656 10.56994141 6.20472656 10.56994141 5.6484375 9.62109375 C4.75239409 8.08838792 3.87444253 6.54513146 3 5 C2.34 5.66 1.68 6.32 1 7 C0.67 4.69 0.34 2.38 0 0 Z " fill="#A9C7D8" transform="translate(68,36)"/>
<path d="M0 0 C0 3.3 0 6.6 0 10 C-1.32 10.33 -2.64 10.66 -4 11 C-5.98 7.535 -5.98 7.535 -8 4 C-8.33 6.31 -8.66 8.62 -9 11 C-9.33 11 -9.66 11 -10 11 C-10 7.37 -10 3.74 -10 0 C-6.7169902 -1.6415049 -3.57454967 -0.51888624 0 0 Z " fill="#B3C5D6" transform="translate(61,76)"/>
<path d="M0 0 C1.25 2.4375 1.25 2.4375 2 5 C1.67 5.66 1.34 6.32 1 7 C0.01 7 -0.98 7 -2 7 C-2.33 6.01 -2.66 5.02 -3 4 C-3.61875 4.495 -4.2375 4.99 -4.875 5.5 C-7 7 -7 7 -9 7 C-9 5.02 -9 3.04 -9 1 C-3.375 -1.125 -3.375 -1.125 0 0 Z " fill="#D3E5E8" transform="translate(59,89)"/>
<path d="M0 0 C0.66 0.33 1.32 0.66 2 1 C-4.55006926 4.90484898 -9.29295862 6.67910406 -17 6 C-19.5 5 -19.5 5 -21 4 C-20.67 3.34 -20.34 2.68 -20 2 C-18.97519531 2.02320312 -17.95039062 2.04640625 -16.89453125 2.0703125 C-15.53386149 2.08908036 -14.1731838 2.10727947 -12.8125 2.125 C-12.13896484 2.14175781 -11.46542969 2.15851563 -10.77148438 2.17578125 C-6.66305702 2.21586347 -3.74016148 1.62734631 0 0 Z " fill="#6EADC3" transform="translate(89,63)"/>
<path d="M0 0 C1.32 0 2.64 0 4 0 C5.31281572 2.4581652 6.62526612 4.91652422 7.9375 7.375 C8.31068359 8.07367188 8.68386719 8.77234375 9.06835938 9.4921875 C11.88671875 14.7734375 11.88671875 14.7734375 13 17 C9.0884532 15.52041491 7.7725476 13.46042529 5.75 9.875 C4.96882813 8.50988281 4.96882813 8.50988281 4.171875 7.1171875 C3.78515625 6.41851562 3.3984375 5.71984375 3 5 C2.34 5.66 1.68 6.32 1 7 C0.67 4.69 0.34 2.38 0 0 Z " fill="#658CA6" transform="translate(68,36)"/>
<path d="M0 0 C4.875 0.875 4.875 0.875 6 2 C6.04080783 3.99958364 6.04254356 6.00045254 6 8 C4.02 8.33 2.04 8.66 0 9 C0 6.03 0 3.06 0 0 Z " fill="#E4F9FD" transform="translate(81,77)"/>
<path d="M0 0 C2.97 0 5.94 0 9 0 C7.68 3.3 6.36 6.6 5 10 C5.99 10.33 6.98 10.66 8 11 C6.02 11 4.04 11 2 11 C2.66 8.36 3.32 5.72 4 3 C3.01 2.67 2.02 2.34 1 2 C1 4.97 1 7.94 1 11 C0.67 11 0.34 11 0 11 C0 7.37 0 3.74 0 0 Z " fill="#99ACBD" transform="translate(90,76)"/>
<path d="M0 0 C2.2477975 2.05233685 3.0022242 3.00667261 4 6 C3.34 6 2.68 6 2 6 C1.67 8.64 1.34 11.28 1 14 C0.01 14 -0.98 14 -2 14 C-2 9.71 -2 5.42 -2 1 C-1.34 0.67 -0.68 0.34 0 0 Z " fill="#BDD4E5" transform="translate(70,40)"/>
<path d="M0 0 C2 3 2 3 3 6 C3.33 4.02 3.66 2.04 4 0 C4.66 0 5.32 0 6 0 C6.66 3.63 7.32 7.26 8 11 C7.34 11 6.68 11 6 11 C5.67 9.68 5.34 8.36 5 7 C4.67 8.32 4.34 9.64 4 11 C3.01 10.67 2.02 10.34 1 10 C-0.1577506 6.52674819 -0.06866652 3.63932552 0 0 Z " fill="#778CA6" transform="translate(61,76)"/>
<path d="M0 0 C0.33 0.66 0.66 1.32 1 2 C0.48050781 2.31710938 -0.03898437 2.63421875 -0.57421875 2.9609375 C-6.60508433 6.99637806 -9.26566061 11.34819359 -12 18 C-12.66 18 -13.32 18 -14 18 C-13.16016317 10.86138693 -8.87189202 6.59648659 -3.5859375 2.19921875 C-2 1 -2 1 0 0 Z " fill="#6CA4B5" transform="translate(67,22)"/>
<path d="M0 0 C2.87974108 2.87974108 3.56972597 4.37663912 5 8 C5.66 8.33 6.32 8.66 7 9 C2.545 9.495 2.545 9.495 -2 10 C-1.34 6.7 -0.68 3.4 0 0 Z " fill="#E1F3FA" transform="translate(52,79)"/>
<path d="M0 0 C3.65564909 0.68761019 6.51867272 2.25449545 9.75 4.0625 C10.73484375 4.61035156 11.7196875 5.15820312 12.734375 5.72265625 C13.48203125 6.14417969 14.2296875 6.56570312 15 7 C11.49622334 8.19097671 11.12124467 8.05845725 7.5 6.3125 C4.6119135 4.52996059 2.27009376 2.54250501 0 0 Z " fill="#CCF6F9" transform="translate(60,58)"/>
<path d="M0 0 C1.32 0 2.64 0 4 0 C4.33 1.98 4.66 3.96 5 6 C4.34 5.67 3.68 5.34 3 5 C2.34 5.66 1.68 6.32 1 7 C0.67 4.69 0.34 2.38 0 0 Z " fill="#64809D" transform="translate(68,36)"/>
<path d="M0 0 C1.98 0.495 1.98 0.495 4 1 C3.67 2.32 3.34 3.64 3 5 C1.68 5 0.36 5 -1 5 C-0.67 3.35 -0.34 1.7 0 0 Z " fill="#C3D0D5" transform="translate(76,91)"/>
<path d="M0 0 C0.33 0 0.66 0 1 0 C1 3.96 1 7.92 1 12 C-0.32 12 -1.64 12 -3 12 C-2.690625 11.505 -2.38125 11.01 -2.0625 10.5 C-0.58355618 7.02013219 -0.37597149 3.75971491 0 0 Z " fill="#CFE4F4" transform="translate(89,76)"/>
<path d="M0 0 C1.32 0.33 2.64 0.66 4 1 C3.34 3.31 2.68 5.62 2 8 C1.34 7.67 0.68 7.34 0 7 C0 4.69 0 2.38 0 0 Z " fill="#E2F5FB" transform="translate(91,78)"/>
<path d="M0 0 C1.98 0 3.96 0 6 0 C5.67 1.32 5.34 2.64 5 4 C3.35 3.67 1.7 3.34 0 3 C0 2.01 0 1.02 0 0 Z " fill="#C9D7DA" transform="translate(101,92)"/>
<path d="M0 0 C0.99 0 1.98 0 3 0 C3.66 1.32 4.32 2.64 5 4 C3.35 4.33 1.7 4.66 0 5 C0 3.35 0 1.7 0 0 Z " fill="#C9D8DC" transform="translate(44,91)"/>
<path d="M0 0 C1.5625 1.25 1.5625 1.25 3 3 C2.6875 5.1875 2.6875 5.1875 2 7 C1.01 7 0.02 7 -1 7 C-1.04254356 5.00045254 -1.04080783 2.99958364 -1 1 C-0.67 0.67 -0.34 0.34 0 0 Z " fill="#C7D9DC" transform="translate(58,89)"/>
<path d="M0 0 C0.33 0 0.66 0 1 0 C1 3.63 1 7.26 1 11 C-1.35953094 8.64046906 -1.49141413 7.22104383 -2 4 C-1.34 4 -0.68 4 0 4 C0 2.68 0 1.36 0 0 Z " fill="#CEE3F4" transform="translate(79,76)"/>
<path d="M0 0 C0.66 0.33 1.32 0.66 2 1 C1.67 1.66 1.34 2.32 1 3 C0.34 3 -0.32 3 -1 3 C-1 3.99 -1 4.98 -1 6 C-2.98 6.99 -2.98 6.99 -5 8 C-3.8141763 4.62496331 -2.72426311 2.35277269 0 0 Z " fill="#D8F9FA" transform="translate(63,26)"/>
</svg>
